# xmcd
#
# Track frame offsets:
# 150
# 15082
# 27787
# 43597
# 55805
# 71200
# 83075
# 97620
# 110165
# 121387
# 135712
# 150860
# 164472
# 178390
#
# Disc length: 2574 seconds
#
#
# Revision: 0
# Processed by: cddbd v1.5.2PL0 Copyright (c) Steve Scherf et al.
# Submitted via: FreeRIP 2.95 
#
DISCID=ab0a0c0e
DTITLE=Ze do Rancho e Ze do Pinho - Luar do Sertão 
DYEAR=1900
DGENRE=
TTITLE0=No Colo da Noite
TTITLE1=Canoeiro Apaixonado
TTITLE2=Eu Sigo o Caminho Dela
TTITLE3=Meu Recanto
TTITLE4=Devolva a Passagem
TTITLE5=Velho Carro
TTITLE6=Meu Sítio, Meu Paraíso
TTITLE7=Gangorra
TTITLE8=Morena Bonita
TTITLE9=Caboclo Decidido
TTITLE10=Meu Pai e Minha Mãe
TTITLE11=Manhã do Nosso Adeus
TTITLE12=Bom Jesus de Pirapora
TTITLE13=Não Há Coração que Aguente
EXTD=
EXTT0=
EXTT1=
EXTT2=
EXTT3=
EXTT4=
EXTT5=
EXTT6=
EXTT7=
EXTT8=
EXTT9=
EXTT10=
EXTT11=
EXTT12=
EXTT13=
PLAYORDER=
